<svg xmlns="http://www.w3.org/2000/svg" xmlns:xlink="http://www.w3.org/1999/xlink" width="1920" zoomAndPan="magnify" viewBox="0 0 1440 599.999999" height="800" preserveAspectRatio="xMidYMid meet" version="1.0"><defs><g/><clipPath id="67a3b32dba"><path d="M 27.375 13.257812 L 1347.703125 13.257812 L 1347.703125 593.519531 L 27.375 593.519531 Z M 27.375 13.257812 " clip-rule="nonzero"/></clipPath><clipPath id="01ef45845d"><path d="M 79.597656 13.257812 L 1295.773438 13.257812 C 1324.613281 13.257812 1347.992188 36.640625 1347.992188 65.480469 L 1347.992188 540.925781 C 1347.992188 569.769531 1324.613281 593.148438 1295.773438 593.148438 L 79.597656 593.148438 C 50.757812 593.148438 27.375 569.769531 27.375 540.925781 L 27.375 65.480469 C 27.375 36.640625 50.757812 13.257812 79.597656 13.257812 Z M 79.597656 13.257812 " clip-rule="nonzero"/></clipPath><clipPath id="41853486b5"><rect x="0" width="499" y="0" height="377"/></clipPath><clipPath id="6744327fcf"><path d="M 907.90625 61.816406 L 993.519531 61.816406 L 993.519531 147.425781 L 907.90625 147.425781 Z M 907.90625 61.816406 " clip-rule="nonzero"/></clipPath><clipPath id="cb99812a10"><path d="M 97.6875 427.410156 L 224.523438 427.410156 L 224.523438 554.246094 L 97.6875 554.246094 Z M 97.6875 427.410156 " clip-rule="nonzero"/></clipPath><clipPath id="eac5467739"><path d="M 126.023438 427.410156 L 196.1875 427.410156 C 211.835938 427.410156 224.523438 440.097656 224.523438 455.746094 L 224.523438 525.910156 C 224.523438 541.558594 211.835938 554.246094 196.1875 554.246094 L 126.023438 554.246094 C 110.375 554.246094 97.6875 541.558594 97.6875 525.910156 L 97.6875 455.746094 C 97.6875 440.097656 110.375 427.410156 126.023438 427.410156 Z M 126.023438 427.410156 " clip-rule="nonzero"/></clipPath><clipPath id="c782ddefab"><path d="M 0.6875 0.410156 L 127.523438 0.410156 L 127.523438 127.246094 L 0.6875 127.246094 Z M 0.6875 0.410156 " clip-rule="nonzero"/></clipPath><clipPath id="560a61460f"><path d="M 29.023438 0.410156 L 99.1875 0.410156 C 114.835938 0.410156 127.523438 13.097656 127.523438 28.746094 L 127.523438 98.910156 C 127.523438 114.558594 114.835938 127.246094 99.1875 127.246094 L 29.023438 127.246094 C 13.375 127.246094 0.6875 114.558594 0.6875 98.910156 L 0.6875 28.746094 C 0.6875 13.097656 13.375 0.410156 29.023438 0.410156 Z M 29.023438 0.410156 " clip-rule="nonzero"/></clipPath><clipPath id="992d533dff"><rect x="0" width="128" y="0" height="128"/></clipPath><clipPath id="53c9b8404a"><path d="M 97.6875 427.410156 L 224.203125 427.410156 L 224.203125 553.925781 L 97.6875 553.925781 Z M 97.6875 427.410156 " clip-rule="nonzero"/></clipPath><clipPath id="3e829f2b32"><path d="M 126.019531 427.410156 L 196.183594 427.410156 C 211.832031 427.410156 224.515625 440.097656 224.515625 455.742188 L 224.515625 525.90625 C 224.515625 541.554688 211.832031 554.238281 196.183594 554.238281 L 126.019531 554.238281 C 110.375 554.238281 97.6875 541.554688 97.6875 525.90625 L 97.6875 455.742188 C 97.6875 440.097656 110.375 427.410156 126.019531 427.410156 Z M 126.019531 427.410156 " clip-rule="nonzero"/></clipPath><clipPath id="ee6d43ff46"><rect x="0" width="528" y="0" height="377"/></clipPath><clipPath id="0c88340796"><rect x="0" width="499" y="0" height="377"/></clipPath><clipPath id="37ac72ee3d"><rect x="0" width="1156" y="0" height="81"/></clipPath><clipPath id="369718f422"><rect x="0" width="152" y="0" height="193"/></clipPath><clipPath id="f4b74c086a"><path d="M 244.957031 427.410156 L 371.789062 427.410156 L 371.789062 554.246094 L 244.957031 554.246094 Z M 244.957031 427.410156 " clip-rule="nonzero"/></clipPath><clipPath id="7cbdfa8921"><path d="M 273.289062 427.410156 L 343.457031 427.410156 C 359.105469 427.410156 371.789062 440.097656 371.789062 455.746094 L 371.789062 525.910156 C 371.789062 541.558594 359.105469 554.246094 343.457031 554.246094 L 273.289062 554.246094 C 257.640625 554.246094 244.957031 541.558594 244.957031 525.910156 L 244.957031 455.746094 C 244.957031 440.097656 257.640625 427.410156 273.289062 427.410156 Z M 273.289062 427.410156 " clip-rule="nonzero"/></clipPath><clipPath id="0bc0ad3b5e"><path d="M 0.957031 0.410156 L 127.789062 0.410156 L 127.789062 127.246094 L 0.957031 127.246094 Z M 0.957031 0.410156 " clip-rule="nonzero"/></clipPath><clipPath id="77f8f061e6"><path d="M 29.289062 0.410156 L 99.457031 0.410156 C 115.105469 0.410156 127.789062 13.097656 127.789062 28.746094 L 127.789062 98.910156 C 127.789062 114.558594 115.105469 127.246094 99.457031 127.246094 L 29.289062 127.246094 C 13.640625 127.246094 0.957031 114.558594 0.957031 98.910156 L 0.957031 28.746094 C 0.957031 13.097656 13.640625 0.410156 29.289062 0.410156 Z M 29.289062 0.410156 " clip-rule="nonzero"/></clipPath><clipPath id="3fd1e8fe87"><rect x="0" width="128" y="0" height="128"/></clipPath><clipPath id="66723be4dd"><path d="M 244.957031 427.410156 L 371.472656 427.410156 L 371.472656 553.925781 L 244.957031 553.925781 Z M 244.957031 427.410156 " clip-rule="nonzero"/></clipPath><clipPath id="adc912d65a"><path d="M 273.289062 427.410156 L 343.453125 427.410156 C 359.097656 427.410156 371.785156 440.097656 371.785156 455.742188 L 371.785156 525.90625 C 371.785156 541.554688 359.097656 554.238281 343.453125 554.238281 L 273.289062 554.238281 C 257.640625 554.238281 244.957031 541.554688 244.957031 525.90625 L 244.957031 455.742188 C 244.957031 440.097656 257.640625 427.410156 273.289062 427.410156 Z M 273.289062 427.410156 " clip-rule="nonzero"/></clipPath><clipPath id="6fd723ebed"><path d="M 392.222656 427.410156 L 519.054688 427.410156 L 519.054688 554.246094 L 392.222656 554.246094 Z M 392.222656 427.410156 " clip-rule="nonzero"/></clipPath><clipPath id="25b1e32216"><path d="M 420.554688 427.410156 L 490.722656 427.410156 C 506.371094 427.410156 519.054688 440.097656 519.054688 455.746094 L 519.054688 525.910156 C 519.054688 541.558594 506.371094 554.246094 490.722656 554.246094 L 420.554688 554.246094 C 404.910156 554.246094 392.222656 541.558594 392.222656 525.910156 L 392.222656 455.746094 C 392.222656 440.097656 404.910156 427.410156 420.554688 427.410156 Z M 420.554688 427.410156 " clip-rule="nonzero"/></clipPath><clipPath id="fe644289a5"><path d="M 0.222656 0.410156 L 127.054688 0.410156 L 127.054688 127.246094 L 0.222656 127.246094 Z M 0.222656 0.410156 " clip-rule="nonzero"/></clipPath><clipPath id="d39dc4d8aa"><path d="M 28.554688 0.410156 L 98.722656 0.410156 C 114.371094 0.410156 127.054688 13.097656 127.054688 28.746094 L 127.054688 98.910156 C 127.054688 114.558594 114.371094 127.246094 98.722656 127.246094 L 28.554688 127.246094 C 12.910156 127.246094 0.222656 114.558594 0.222656 98.910156 L 0.222656 28.746094 C 0.222656 13.097656 12.910156 0.410156 28.554688 0.410156 Z M 28.554688 0.410156 " clip-rule="nonzero"/></clipPath><clipPath id="b9ac435d11"><rect x="0" width="128" y="0" height="128"/></clipPath><clipPath id="ac77a09500"><path d="M 392.222656 427.410156 L 518.738281 427.410156 L 518.738281 553.925781 L 392.222656 553.925781 Z M 392.222656 427.410156 " clip-rule="nonzero"/></clipPath><clipPath id="e4599eb4fb"><path d="M 420.554688 427.410156 L 490.71875 427.410156 C 506.367188 427.410156 519.050781 440.097656 519.050781 455.742188 L 519.050781 525.90625 C 519.050781 541.554688 506.367188 554.238281 490.71875 554.238281 L 420.554688 554.238281 C 404.90625 554.238281 392.222656 541.554688 392.222656 525.90625 L 392.222656 455.742188 C 392.222656 440.097656 404.90625 427.410156 420.554688 427.410156 Z M 420.554688 427.410156 " clip-rule="nonzero"/></clipPath><clipPath id="d6178ec14e"><path d="M 540.109375 427.410156 L 666.941406 427.410156 L 666.941406 554.246094 L 540.109375 554.246094 Z M 540.109375 427.410156 " clip-rule="nonzero"/></clipPath><clipPath id="c3054c2266"><path d="M 568.441406 427.410156 L 638.609375 427.410156 C 654.257812 427.410156 666.941406 440.097656 666.941406 455.746094 L 666.941406 525.910156 C 666.941406 541.558594 654.257812 554.246094 638.609375 554.246094 L 568.441406 554.246094 C 552.792969 554.246094 540.109375 541.558594 540.109375 525.910156 L 540.109375 455.746094 C 540.109375 440.097656 552.792969 427.410156 568.441406 427.410156 Z M 568.441406 427.410156 " clip-rule="nonzero"/></clipPath><clipPath id="2df00dd1a3"><path d="M 0.109375 0.410156 L 126.941406 0.410156 L 126.941406 127.246094 L 0.109375 127.246094 Z M 0.109375 0.410156 " clip-rule="nonzero"/></clipPath><clipPath id="202b3d2544"><path d="M 28.441406 0.410156 L 98.609375 0.410156 C 114.257812 0.410156 126.941406 13.097656 126.941406 28.746094 L 126.941406 98.910156 C 126.941406 114.558594 114.257812 127.246094 98.609375 127.246094 L 28.441406 127.246094 C 12.792969 127.246094 0.109375 114.558594 0.109375 98.910156 L 0.109375 28.746094 C 0.109375 13.097656 12.792969 0.410156 28.441406 0.410156 Z M 28.441406 0.410156 " clip-rule="nonzero"/></clipPath><clipPath id="36b4d41ea8"><rect x="0" width="127" y="0" height="128"/></clipPath><clipPath id="91702263cf"><path d="M 540.109375 427.410156 L 666.625 427.410156 L 666.625 553.925781 L 540.109375 553.925781 Z M 540.109375 427.410156 " clip-rule="nonzero"/></clipPath><clipPath id="a98acd37fc"><path d="M 568.441406 427.410156 L 638.605469 427.410156 C 654.253906 427.410156 666.9375 440.097656 666.9375 455.742188 L 666.9375 525.90625 C 666.9375 541.554688 654.253906 554.238281 638.605469 554.238281 L 568.441406 554.238281 C 552.792969 554.238281 540.109375 541.554688 540.109375 525.90625 L 540.109375 455.742188 C 540.109375 440.097656 552.792969 427.410156 568.441406 427.410156 Z M 568.441406 427.410156 " clip-rule="nonzero"/></clipPath><clipPath id="ff131955c1"><path d="M 687.6875 427.410156 L 814.519531 427.410156 L 814.519531 554.246094 L 687.6875 554.246094 Z M 687.6875 427.410156 " clip-rule="nonzero"/></clipPath><clipPath id="7812e4c155"><path d="M 716.019531 427.410156 L 786.183594 427.410156 C 801.832031 427.410156 814.519531 440.097656 814.519531 455.746094 L 814.519531 525.910156 C 814.519531 541.558594 801.832031 554.246094 786.183594 554.246094 L 716.019531 554.246094 C 700.371094 554.246094 687.6875 541.558594 687.6875 525.910156 L 687.6875 455.746094 C 687.6875 440.097656 700.371094 427.410156 716.019531 427.410156 Z M 716.019531 427.410156 " clip-rule="nonzero"/></clipPath><clipPath id="58278c5edb"><path d="M 0.6875 0.410156 L 127.519531 0.410156 L 127.519531 127.246094 L 0.6875 127.246094 Z M 0.6875 0.410156 " clip-rule="nonzero"/></clipPath><clipPath id="6d1442f5b1"><path d="M 29.019531 0.410156 L 99.183594 0.410156 C 114.832031 0.410156 127.519531 13.097656 127.519531 28.746094 L 127.519531 98.910156 C 127.519531 114.558594 114.832031 127.246094 99.183594 127.246094 L 29.019531 127.246094 C 13.371094 127.246094 0.6875 114.558594 0.6875 98.910156 L 0.6875 28.746094 C 0.6875 13.097656 13.371094 0.410156 29.019531 0.410156 Z M 29.019531 0.410156 " clip-rule="nonzero"/></clipPath><clipPath id="6cfef75e1f"><rect x="0" width="128" y="0" height="128"/></clipPath><clipPath id="50606a8bbd"><path d="M 687.6875 427.410156 L 814.203125 427.410156 L 814.203125 553.925781 L 687.6875 553.925781 Z M 687.6875 427.410156 " clip-rule="nonzero"/></clipPath><clipPath id="8b19e5afc1"><path d="M 716.019531 427.410156 L 786.179688 427.410156 C 801.828125 427.410156 814.511719 440.097656 814.511719 455.742188 L 814.511719 525.90625 C 814.511719 541.554688 801.828125 554.238281 786.179688 554.238281 L 716.019531 554.238281 C 700.371094 554.238281 687.6875 541.554688 687.6875 525.90625 L 687.6875 455.742188 C 687.6875 440.097656 700.371094 427.410156 716.019531 427.410156 Z M 716.019531 427.410156 " clip-rule="nonzero"/></clipPath><clipPath id="cd0ee5968b"><path d="M 835.261719 427.410156 L 962.09375 427.410156 L 962.09375 554.246094 L 835.261719 554.246094 Z M 835.261719 427.410156 " clip-rule="nonzero"/></clipPath><clipPath id="1be42e4271"><path d="M 863.59375 427.410156 L 933.761719 427.410156 C 949.410156 427.410156 962.09375 440.097656 962.09375 455.746094 L 962.09375 525.910156 C 962.09375 541.558594 949.410156 554.246094 933.761719 554.246094 L 863.59375 554.246094 C 847.949219 554.246094 835.261719 541.558594 835.261719 525.910156 L 835.261719 455.746094 C 835.261719 440.097656 847.949219 427.410156 863.59375 427.410156 Z M 863.59375 427.410156 " clip-rule="nonzero"/></clipPath><clipPath id="9b17ea8771"><path d="M 0.261719 0.410156 L 127.09375 0.410156 L 127.09375 127.246094 L 0.261719 127.246094 Z M 0.261719 0.410156 " clip-rule="nonzero"/></clipPath><clipPath id="be90902b81"><path d="M 28.59375 0.410156 L 98.761719 0.410156 C 114.410156 0.410156 127.09375 13.097656 127.09375 28.746094 L 127.09375 98.910156 C 127.09375 114.558594 114.410156 127.246094 98.761719 127.246094 L 28.59375 127.246094 C 12.949219 127.246094 0.261719 114.558594 0.261719 98.910156 L 0.261719 28.746094 C 0.261719 13.097656 12.949219 0.410156 28.59375 0.410156 Z M 28.59375 0.410156 " clip-rule="nonzero"/></clipPath><clipPath id="1085fac767"><rect x="0" width="128" y="0" height="128"/></clipPath><clipPath id="5066a1f6af"><path d="M 835.261719 427.410156 L 961.777344 427.410156 L 961.777344 553.925781 L 835.261719 553.925781 Z M 835.261719 427.410156 " clip-rule="nonzero"/></clipPath><clipPath id="ca83bee212"><path d="M 863.59375 427.410156 L 933.757812 427.410156 C 949.40625 427.410156 962.089844 440.097656 962.089844 455.742188 L 962.089844 525.90625 C 962.089844 541.554688 949.40625 554.238281 933.757812 554.238281 L 863.59375 554.238281 C 847.945312 554.238281 835.261719 541.554688 835.261719 525.90625 L 835.261719 455.742188 C 835.261719 440.097656 847.945312 427.410156 863.59375 427.410156 Z M 863.59375 427.410156 " clip-rule="nonzero"/></clipPath><clipPath id="b97ed73cfe"><path d="M 982.839844 427.410156 L 1109.671875 427.410156 L 1109.671875 554.246094 L 982.839844 554.246094 Z M 982.839844 427.410156 " clip-rule="nonzero"/></clipPath><clipPath id="f73327043f"><path d="M 1011.171875 427.410156 L 1081.339844 427.410156 C 1096.988281 427.410156 1109.671875 440.097656 1109.671875 455.746094 L 1109.671875 525.910156 C 1109.671875 541.558594 1096.988281 554.246094 1081.339844 554.246094 L 1011.171875 554.246094 C 995.523438 554.246094 982.839844 541.558594 982.839844 525.910156 L 982.839844 455.746094 C 982.839844 440.097656 995.523438 427.410156 1011.171875 427.410156 Z M 1011.171875 427.410156 " clip-rule="nonzero"/></clipPath><clipPath id="d1314d9607"><path d="M 0.839844 0.410156 L 127.671875 0.410156 L 127.671875 127.246094 L 0.839844 127.246094 Z M 0.839844 0.410156 " clip-rule="nonzero"/></clipPath><clipPath id="e34dc56933"><path d="M 29.171875 0.410156 L 99.339844 0.410156 C 114.988281 0.410156 127.671875 13.097656 127.671875 28.746094 L 127.671875 98.910156 C 127.671875 114.558594 114.988281 127.246094 99.339844 127.246094 L 29.171875 127.246094 C 13.523438 127.246094 0.839844 114.558594 0.839844 98.910156 L 0.839844 28.746094 C 0.839844 13.097656 13.523438 0.410156 29.171875 0.410156 Z M 29.171875 0.410156 " clip-rule="nonzero"/></clipPath><clipPath id="43174577be"><rect x="0" width="128" y="0" height="128"/></clipPath><clipPath id="0200267b17"><path d="M 982.839844 427.410156 L 1109.355469 427.410156 L 1109.355469 553.925781 L 982.839844 553.925781 Z M 982.839844 427.410156 " clip-rule="nonzero"/></clipPath><clipPath id="8f8e52a885"><path d="M 1011.171875 427.410156 L 1081.335938 427.410156 C 1096.980469 427.410156 1109.667969 440.097656 1109.667969 455.742188 L 1109.667969 525.90625 C 1109.667969 541.554688 1096.980469 554.238281 1081.335938 554.238281 L 1011.171875 554.238281 C 995.523438 554.238281 982.839844 541.554688 982.839844 525.90625 L 982.839844 455.742188 C 982.839844 440.097656 995.523438 427.410156 1011.171875 427.410156 Z M 1011.171875 427.410156 " clip-rule="nonzero"/></clipPath><clipPath id="61c0e9cf33"><path d="M 1130.414062 427.410156 L 1257.25 427.410156 L 1257.25 554.246094 L 1130.414062 554.246094 Z M 1130.414062 427.410156 " clip-rule="nonzero"/></clipPath><clipPath id="fc759c912a"><path d="M 1158.75 427.410156 L 1228.914062 427.410156 C 1244.5625 427.410156 1257.25 440.097656 1257.25 455.746094 L 1257.25 525.910156 C 1257.25 541.558594 1244.5625 554.246094 1228.914062 554.246094 L 1158.75 554.246094 C 1143.101562 554.246094 1130.414062 541.558594 1130.414062 525.910156 L 1130.414062 455.746094 C 1130.414062 440.097656 1143.101562 427.410156 1158.75 427.410156 Z M 1158.75 427.410156 " clip-rule="nonzero"/></clipPath><clipPath id="97147decd0"><path d="M 0.414062 0.410156 L 127.25 0.410156 L 127.25 127.246094 L 0.414062 127.246094 Z M 0.414062 0.410156 " clip-rule="nonzero"/></clipPath><clipPath id="6a13e26431"><path d="M 28.75 0.410156 L 98.914062 0.410156 C 114.5625 0.410156 127.25 13.097656 127.25 28.746094 L 127.25 98.910156 C 127.25 114.558594 114.5625 127.246094 98.914062 127.246094 L 28.75 127.246094 C 13.101562 127.246094 0.414062 114.558594 0.414062 98.910156 L 0.414062 28.746094 C 0.414062 13.097656 13.101562 0.410156 28.75 0.410156 Z M 28.75 0.410156 " clip-rule="nonzero"/></clipPath><clipPath id="da3adde5b5"><rect x="0" width="128" y="0" height="128"/></clipPath><clipPath id="b2a8c054f8"><path d="M 1130.414062 427.410156 L 1256.929688 427.410156 L 1256.929688 553.925781 L 1130.414062 553.925781 Z M 1130.414062 427.410156 " clip-rule="nonzero"/></clipPath><clipPath id="7314524126"><path d="M 1158.746094 427.410156 L 1228.910156 427.410156 C 1244.558594 427.410156 1257.242188 440.097656 1257.242188 455.742188 L 1257.242188 525.90625 C 1257.242188 541.554688 1244.558594 554.238281 1228.910156 554.238281 L 1158.746094 554.238281 C 1143.101562 554.238281 1130.414062 541.554688 1130.414062 525.90625 L 1130.414062 455.742188 C 1130.414062 440.097656 1143.101562 427.410156 1158.746094 427.410156 Z M 1158.746094 427.410156 " clip-rule="nonzero"/></clipPath><clipPath id="945f614f48"><rect x="0" width="151" y="0" height="193"/></clipPath><clipPath id="23753f59ee"><rect x="0" width="1374" y="0" height="600"/></clipPath></defs><rect x="-144" width="1728" fill="#ffffff" y="-60" height="719.999999" fill-opacity="1"/><rect x="-144" width="1728" fill="#ffffff" y="-60" height="719.999999" fill-opacity="1"/><g transform="matrix(1, 0, 0, 1, 32, -0.000000000000034788)"><g clip-path="url(#23753f59ee)"><g clip-path="url(#67a3b32dba)"><g clip-path="url(#01ef45845d)"><path stroke-linecap="butt" transform="matrix(0.951247, 0, 0, 0.951247, 27.371339, 13.259724)" fill="none" stroke-linejoin="miter" d="M 54.903024 -0.00200921 L 1333.410311 -0.00200921 C 1363.728256 -0.00200921 1388.305379 24.57922 1388.305379 54.897165 L 1388.305379 554.710027 C 1388.305379 585.032078 1363.728256 609.609201 1333.410311 609.609201 L 54.903024 609.609201 C 24.585079 609.609201 0.00384907 585.032078 0.00384907 554.710027 L 0.00384907 54.897165 C 0.00384907 24.57922 24.585079 -0.00200921 54.903024 -0.00200921 Z M 54.903024 -0.00200921 " stroke="#000000" stroke-width="11.038146" stroke-opacity="1" stroke-miterlimit="4"/></g></g><g transform="matrix(1, 0, 0, 1, 509, 50)"><g clip-path="url(#41853486b5)"><g fill="#000000" fill-opacity="1"><g transform="translate(0.951677, 301.245891)"><g><path d="M 73.65625 -186.390625 C 73.65625 -177.117188 76.847656 -169.289062 83.234375 -162.90625 C 89.628906 -156.519531 97.457031 -153.328125 106.71875 -153.328125 L 429.90625 -153.328125 L 429.90625 -263.0625 L 473.5 -263.0625 L 473.5 -76.65625 C 473.5 -61.875 470.179688 -48.722656 463.546875 -37.203125 C 456.910156 -25.679688 447.828125 -16.597656 436.296875 -9.953125 C 424.773438 -3.316406 411.625 0 396.84375 0 L 41.34375 0 L 41.34375 -43.59375 L 396.84375 -43.59375 C 406.363281 -43.59375 414.253906 -46.785156 420.515625 -53.171875 C 426.773438 -59.566406 429.90625 -67.394531 429.90625 -76.65625 L 429.90625 -109.734375 L 106.71875 -109.734375 C 91.9375 -109.734375 78.785156 -113.050781 67.265625 -119.6875 C 55.742188 -126.332031 46.660156 -135.414062 40.015625 -146.9375 C 33.378906 -158.457031 30.0625 -171.609375 30.0625 -186.390625 L 30.0625 -263.0625 L 73.65625 -263.0625 Z M 73.65625 -186.390625 "/></g></g></g></g></g><path fill="#ff0000" d="M 992.277344 105.246094 C 991.820312 105.996094 991.046875 106.4375 990.28125 106.863281 C 990.605469 107.332031 990.59375 107.957031 990.449219 108.507812 C 990.304688 109.058594 990.042969 109.574219 989.898438 110.121094 C 989.75 110.671875 989.789062 111.398438 990.105469 111.867188 C 989.667969 111.886719 989.300781 112.238281 989.121094 112.644531 C 988.941406 113.046875 988.914062 113.496094 988.878906 113.933594 C 988.839844 114.371094 988.78125 114.824219 988.550781 115.203125 L 988.5625 115.203125 C 989.191406 115.453125 989.847656 115.71875 990.292969 116.234375 C 990.421875 116.382812 990.535156 116.554688 990.601562 116.738281 C 990.757812 117.164062 990.695312 117.644531 990.519531 118.058594 C 990.34375 118.476562 990.070312 118.84375 989.796875 119.203125 C 990.152344 119.554688 990.734375 119.953125 990.894531 120.425781 C 990.996094 120.726562 991.003906 121.054688 991.050781 121.371094 C 991.207031 122.488281 991.800781 123.542969 991.761719 124.671875 L 991.761719 124.675781 C 991.761719 124.789062 991.675781 124.886719 991.574219 124.945312 C 991.476562 125.003906 991.367188 125.039062 991.265625 125.089844 C 990.914062 125.269531 990.726562 125.667969 990.652344 126.058594 C 990.578125 126.445312 990.589844 126.847656 990.507812 127.234375 C 990.339844 128.023438 989.738281 128.664062 989.214844 129.277344 C 989.5 129.636719 989.789062 130 989.953125 130.425781 C 990.113281 130.851562 990.132812 131.359375 989.890625 131.746094 C 989.59375 132.222656 988.878906 132.449219 988.335938 132.589844 C 988.734375 132.976562 989.160156 133.40625 989.238281 133.953125 C 989.292969 134.335938 989.175781 134.726562 989.222656 135.109375 C 989.265625 135.4375 989.433594 135.742188 989.648438 135.996094 C 989.863281 136.25 990.125 136.460938 990.382812 136.671875 C 989.914062 137.371094 989.960938 138.375 990.183594 139.191406 C 990.402344 140.003906 990.789062 140.765625 991.007812 141.582031 C 991.28125 142.621094 991.261719 143.738281 990.957031 144.769531 C 989.558594 145.101562 987.933594 145.105469 986.574219 144.640625 C 985.949219 144.425781 985.347656 144.128906 984.703125 143.988281 C 984.054688 143.851562 983.277344 143.871094 982.75 144.269531 C 982.507812 143.875 982.140625 143.558594 981.710938 143.386719 C 981.210938 143.183594 980.660156 143.179688 980.128906 143.09375 C 979.597656 143.007812 979.007812 142.78125 978.707031 142.332031 C 978.582031 142.890625 978.320312 143.421875 977.949219 143.859375 C 977.816406 144.015625 977.65625 144.167969 977.453125 144.199219 C 977.300781 144.222656 977.148438 144.167969 977.003906 144.113281 C 976.460938 143.902344 975.925781 143.574219 975.449219 143.238281 C 975.164062 143.226562 974.910156 143.410156 974.714844 143.613281 C 974.519531 143.816406 974.347656 144.054688 974.109375 144.203125 C 973.5 144.589844 972.667969 144.289062 971.996094 144.550781 C 971.441406 144.765625 970.976562 145.289062 970.675781 145.796875 C 970.480469 145.632812 970.222656 145.574219 969.96875 145.554688 C 969.714844 145.535156 969.460938 145.542969 969.214844 145.484375 C 968.84375 145.402344 968.515625 145.183594 968.15625 145.066406 C 967.644531 144.902344 967.082031 144.953125 966.574219 144.785156 C 965.996094 144.597656 965.542969 144.148438 965.113281 143.714844 C 964.578125 144.117188 964.328125 144.207031 963.707031 144.453125 C 963.457031 144.554688 963.183594 144.640625 962.921875 144.578125 C 962.703125 144.523438 962.527344 144.371094 962.367188 144.214844 C 961.902344 143.753906 961.527344 143.15625 961.265625 142.554688 C 960.585938 142.902344 959.742188 142.644531 959.011719 142.875 C 958.503906 143.035156 958.046875 143.46875 957.871094 143.976562 C 957.503906 143.625 956.914062 143.621094 956.429688 143.773438 C 955.941406 143.925781 955.503906 144.199219 955.015625 144.351562 C 954.359375 144.554688 953.625 144.511719 952.996094 144.230469 L 953 144.09375 C 952.761719 145 952.113281 145.792969 951.269531 146.199219 C 951.03125 146.316406 950.765625 146.402344 950.507812 146.363281 C 950.289062 146.328125 950.089844 146.207031 949.914062 146.078125 C 949.253906 145.609375 948.691406 145 948.273438 144.308594 C 947.523438 144.433594 946.761719 144.5625 946.066406 144.261719 C 945.707031 144.105469 945.398438 143.851562 945.035156 143.714844 C 944.464844 143.503906 943.78125 143.640625 943.332031 144.050781 C 943.242188 143.617188 942.867188 143.253906 942.460938 143.070312 C 942.054688 142.890625 941.601562 142.839844 941.160156 142.792969 C 940.714844 142.746094 940.265625 142.695312 939.859375 142.507812 C 939.789062 143.15625 939.527344 143.652344 939.089844 144.136719 C 938.910156 144.332031 938.695312 144.511719 938.4375 144.554688 C 938.269531 144.578125 938.097656 144.542969 937.933594 144.5 C 937.339844 144.339844 936.777344 144.070312 936.277344 143.707031 C 935.464844 143.988281 934.984375 144.835938 934.148438 145.023438 C 933.753906 145.109375 933.332031 145.03125 932.9375 145.121094 C 932.628906 145.1875 932.351562 145.351562 932.046875 145.441406 C 931.511719 145.597656 930.902344 145.527344 930.425781 145.8125 C 930.171875 145.238281 929.554688 144.769531 928.953125 144.597656 C 928.601562 144.496094 928.226562 144.488281 927.863281 144.410156 C 927.175781 144.265625 926.421875 143.734375 926.003906 143.167969 C 925.695312 143.453125 925.640625 143.507812 925.273438 143.71875 C 924.90625 143.933594 924.476562 144.058594 924.0625 143.996094 C 923.683594 143.941406 923.335938 143.722656 923.09375 143.429688 C 922.847656 143.132812 922.648438 142.640625 922.597656 142.261719 C 922.28125 142.773438 921.695312 143.085938 921.097656 143.148438 C 920.691406 143.1875 920.273438 143.125 919.871094 143.199219 C 919.308594 143.304688 918.710938 143.785156 918.472656 144.308594 C 917.976562 143.9375 917.304688 143.890625 916.691406 143.976562 C 915.703125 144.113281 914.78125 144.546875 913.816406 144.804688 C 912.707031 145.101562 911.152344 145.109375 910.273438 144.769531 C 909.964844 143.738281 909.949219 142.621094 910.226562 141.582031 C 910.441406 140.769531 910.832031 140.003906 911.050781 139.191406 C 911.269531 138.378906 911.320312 137.375 910.847656 136.671875 C 911.109375 136.464844 911.367188 136.253906 911.582031 135.996094 C 911.796875 135.742188 911.964844 135.441406 912.007812 135.109375 C 912.058594 134.726562 911.9375 134.339844 911.992188 133.957031 C 912.074219 133.40625 912.496094 132.980469 912.894531 132.59375 C 912.351562 132.453125 911.640625 132.222656 911.339844 131.75 C 911.097656 131.363281 911.117188 130.855469 911.28125 130.429688 C 911.441406 130 911.734375 129.632812 912.019531 129.277344 C 911.496094 128.664062 910.890625 128.027344 910.722656 127.238281 C 910.640625 126.847656 910.65625 126.449219 910.578125 126.058594 C 910.503906 125.667969 910.320312 125.269531 909.96875 125.089844 C 909.867188 125.039062 909.753906 125.007812 909.65625 124.945312 C 909.558594 124.886719 909.472656 124.792969 909.46875 124.675781 L 909.46875 124.671875 C 909.429688 123.546875 910.023438 122.492188 910.183594 121.371094 C 910.226562 121.054688 910.238281 120.730469 910.339844 120.425781 C 910.5 119.953125 911.078125 119.558594 911.433594 119.207031 C 911.160156 118.84375 910.886719 118.476562 910.710938 118.0625 C 910.539062 117.644531 910.46875 117.160156 910.628906 116.738281 C 910.695312 116.554688 910.808594 116.382812 910.9375 116.234375 C 911.382812 115.722656 912.039062 115.453125 912.671875 115.207031 L 912.679688 115.203125 C 912.453125 114.824219 912.394531 114.375 912.355469 113.9375 C 912.316406 113.496094 912.289062 113.046875 912.113281 112.644531 C 911.933594 112.242188 911.566406 111.890625 911.125 111.871094 C 911.445312 111.398438 911.480469 110.671875 911.335938 110.125 C 911.1875 109.574219 910.925781 109.058594 910.78125 108.511719 C 910.636719 107.960938 910.625 107.332031 910.949219 106.867188 C 910.183594 106.4375 909.410156 105.996094 908.957031 105.25 C 908.78125 104.96875 908.664062 104.632812 908.722656 104.308594 C 908.769531 104.0625 908.910156 103.847656 909.0625 103.648438 C 909.3125 103.324219 909.601562 103.03125 909.921875 102.777344 C 910.136719 102.609375 910.371094 102.449219 910.539062 102.234375 C 910.710938 102.019531 910.8125 101.726562 910.71875 101.46875 C 910.667969 101.035156 910.683594 100.515625 910.820312 100.101562 C 910.972656 99.636719 911.316406 99.25 911.453125 98.78125 C 911.617188 98.242188 911.492188 97.613281 911.125 97.191406 C 911.382812 97.082031 911.648438 96.96875 911.832031 96.757812 C 912 96.566406 912.082031 96.324219 912.144531 96.078125 C 912.324219 95.398438 912.386719 94.695312 912.445312 93.996094 C 912.453125 93.925781 912.457031 93.851562 912.421875 93.792969 C 912.386719 93.734375 912.160156 93.675781 912.117188 93.730469 C 911.339844 93.542969 910.707031 92.871094 910.566406 92.085938 C 910.421875 91.296875 910.789062 90.449219 911.449219 90.003906 C 910.871094 89.640625 910.464844 89.003906 910.257812 88.351562 C 910.050781 87.703125 909.984375 87.015625 909.882812 86.339844 C 909.777344 85.664062 909.625 84.980469 909.273438 84.394531 C 909.824219 83.980469 910.417969 83.582031 910.597656 82.949219 C 910.734375 82.484375 910.703125 81.988281 910.8125 81.515625 C 910.964844 80.867188 911.390625 80.289062 911.964844 79.957031 C 911.683594 79.597656 911.402344 79.132812 911.261719 78.699219 C 911.121094 78.261719 911.117188 77.765625 911.355469 77.375 C 911.652344 76.875 912.316406 76.621094 912.882812 76.488281 L 912.90625 76.488281 C 912.625 76.28125 912.636719 76.296875 912.433594 76.011719 C 912.1875 75.667969 912.082031 75.242188 912.015625 74.820312 C 911.953125 74.402344 911.925781 73.972656 911.808594 73.566406 C 911.816406 73.273438 911.660156 72.929688 911.417969 72.773438 C 911.257812 72.667969 911.046875 72.601562 910.96875 72.425781 C 910.917969 72.3125 910.941406 72.179688 911.007812 72.074219 C 911.070312 71.972656 911.1875 71.875 911.292969 71.816406 C 911.257812 70.652344 910.785156 69.554688 910.484375 68.425781 C 910.113281 67.046875 910 65.601562 910.152344 64.179688 C 911.03125 63.839844 912.714844 63.925781 913.824219 64.222656 C 914.789062 64.480469 915.707031 64.910156 916.695312 65.046875 C 917.3125 65.132812 917.980469 65.085938 918.480469 64.71875 C 918.71875 65.242188 919.3125 65.722656 919.878906 65.828125 C 920.28125 65.902344 920.699219 65.835938 921.105469 65.878906 C 921.707031 65.941406 922.289062 66.253906 922.605469 66.761719 C 922.660156 66.382812 922.855469 65.894531 923.097656 65.597656 C 923.34375 65.300781 923.691406 65.089844 924.070312 65.027344 C 924.488281 64.964844 924.914062 65.09375 925.28125 65.304688 C 925.644531 65.515625 925.703125 65.570312 926.011719 65.855469 C 926.433594 65.289062 927.183594 64.757812 927.871094 64.613281 C 928.230469 64.539062 928.609375 64.527344 928.960938 64.425781 C 929.566406 64.253906 930.179688 63.789062 930.433594 63.214844 C 930.914062 63.5 931.519531 63.421875 932.054688 63.585938 C 932.359375 63.675781 932.636719 63.835938 932.945312 63.90625 C 933.339844 63.992188 933.757812 63.914062 934.152344 64.003906 C 934.992188 64.1875 935.472656 65.039062 936.285156 65.316406 C 936.78125 64.957031 937.347656 64.683594 937.941406 64.527344 C 938.105469 64.480469 938.277344 64.445312 938.445312 64.472656 C 938.703125 64.511719 938.921875 64.691406 939.09375 64.886719 C 939.53125 65.371094 939.792969 65.867188 939.863281 66.519531 C 940.269531 66.332031 940.722656 66.28125 941.164062 66.230469 C 941.609375 66.183594 942.058594 66.136719 942.46875 65.953125 C 942.875 65.773438 943.25 65.410156 943.339844 64.972656 C 943.789062 65.386719 944.472656 65.519531 945.042969 65.308594 C 945.410156 65.175781 945.714844 64.917969 946.070312 64.765625 C 946.769531 64.464844 947.53125 64.59375 948.277344 64.71875 C 948.699219 64.023438 949.261719 63.417969 949.917969 62.945312 C 950.101562 62.816406 950.292969 62.695312 950.515625 62.660156 C 950.777344 62.621094 951.039062 62.707031 951.277344 62.824219 C 952.121094 63.230469 952.769531 64.023438 953.007812 64.929688 L 953.003906 64.792969 C 953.632812 64.511719 954.367188 64.46875 955.023438 64.671875 C 955.511719 64.824219 955.949219 65.101562 956.4375 65.25 C 956.921875 65.402344 957.507812 65.398438 957.878906 65.046875 C 958.050781 65.554688 958.507812 65.988281 959.019531 66.152344 C 959.75 66.382812 960.59375 66.121094 961.273438 66.472656 C 961.535156 65.867188 961.910156 65.273438 962.375 64.8125 C 962.53125 64.652344 962.710938 64.5 962.929688 64.449219 C 963.191406 64.382812 963.460938 64.472656 963.710938 64.570312 C 964.332031 64.816406 964.582031 64.90625 965.117188 65.308594 C 965.546875 64.875 966 64.429688 966.578125 64.238281 C 967.089844 64.070312 967.652344 64.121094 968.164062 63.957031 C 968.523438 63.839844 968.851562 63.621094 969.21875 63.539062 C 969.46875 63.484375 969.722656 63.492188 969.976562 63.46875 C 970.226562 63.449219 970.488281 63.390625 970.679688 63.226562 C 970.984375 63.738281 971.449219 64.261719 972.003906 64.472656 C 972.675781 64.734375 973.507812 64.433594 974.117188 64.820312 C 974.359375 64.972656 974.523438 65.210938 974.722656 65.414062 C 974.917969 65.613281 975.171875 65.800781 975.453125 65.785156 C 975.929688 65.453125 976.46875 65.125 977.011719 64.910156 C 977.15625 64.855469 977.304688 64.804688 977.460938 64.824219 C 977.660156 64.851562 977.824219 65.007812 977.953125 65.164062 C 978.324219 65.605469 978.585938 66.132812 978.714844 66.691406 C 979.015625 66.246094 979.605469 66.015625 980.136719 65.933594 C 980.667969 65.847656 981.214844 65.839844 981.714844 65.640625 C 982.144531 65.464844 982.515625 65.152344 982.757812 64.753906 C 983.285156 65.15625 984.0625 65.175781 984.707031 65.035156 C 985.355469 64.894531 985.957031 64.597656 986.582031 64.386719 C 987.941406 63.921875 989.691406 63.84375 991.09375 64.179688 C 991.242188 65.597656 991.128906 67.046875 990.761719 68.425781 C 990.457031 69.550781 989.984375 70.648438 989.949219 71.816406 C 990.058594 71.871094 990.171875 71.96875 990.238281 72.074219 C 990.304688 72.179688 990.328125 72.316406 990.277344 72.425781 C 990.199219 72.601562 989.988281 72.667969 989.828125 72.769531 C 989.585938 72.929688 989.429688 73.273438 989.4375 73.5625 C 989.324219 73.972656 989.292969 74.398438 989.226562 74.820312 C 989.164062 75.238281 989.058594 75.664062 988.8125 76.011719 C 988.609375 76.292969 988.621094 76.28125 988.339844 76.488281 L 988.363281 76.488281 C 988.929688 76.621094 989.589844 76.875 989.890625 77.371094 C 990.125 77.765625 990.125 78.261719 989.984375 78.695312 C 989.839844 79.128906 989.5625 79.59375 989.28125 79.953125 C 989.855469 80.289062 990.28125 80.871094 990.433594 81.515625 C 990.539062 81.984375 990.511719 82.480469 990.648438 82.945312 C 990.832031 83.578125 991.421875 83.980469 991.96875 84.394531 C 991.617188 84.980469 991.46875 85.664062 991.363281 86.339844 C 991.261719 87.011719 991.195312 87.699219 990.988281 88.351562 C 990.777344 89.003906 990.375 89.640625 989.796875 90.003906 C 990.457031 90.449219 990.820312 91.300781 990.679688 92.082031 C 990.539062 92.867188 989.90625 93.542969 989.128906 93.726562 C 989.085938 93.675781 988.859375 93.734375 988.824219 93.792969 C 988.789062 93.851562 988.792969 93.921875 988.796875 93.996094 C 988.859375 94.695312 988.925781 95.398438 989.101562 96.078125 C 989.164062 96.320312 989.246094 96.566406 989.414062 96.753906 C 989.597656 96.964844 989.863281 97.082031 990.121094 97.191406 C 989.753906 97.609375 989.628906 98.242188 989.789062 98.777344 C 989.929688 99.25 990.273438 99.636719 990.425781 100.101562 C 990.5625 100.511719 990.574219 101.03125 990.527344 101.464844 C 990.433594 101.722656 990.535156 102.019531 990.707031 102.234375 C 990.875 102.449219 991.105469 102.605469 991.320312 102.777344 C 991.640625 103.03125 991.929688 103.324219 992.179688 103.648438 C 992.335938 103.84375 992.476562 104.0625 992.519531 104.308594 C 992.570312 104.632812 992.449219 104.964844 992.277344 105.246094 Z M 992.277344 105.246094 " fill-opacity="1" fill-rule="nonzero"/><g clip-path="url(#6744327fcf)"><path fill="#ffffff" d="M 907.90625 61.816406 L 993.3125 61.816406 L 993.3125 147.21875 L 907.90625 147.21875 Z M 907.90625 61.816406 " fill-opacity="1" fill-rule="nonzero"/></g><g clip-path="url(#cb99812a10)"><g clip-path="url(#eac5467739)"><g transform="matrix(1, 0, 0, 1, 97, 427)"><g clip-path="url(#992d533dff)"><g clip-path="url(#c782ddefab)"><g clip-path="url(#560a61460f)"><path fill="#c40606" d="M 0.6875 0.410156 L 127.523438 0.410156 L 127.523438 127.246094 L 0.6875 127.246094 Z M 0.6875 0.410156 " fill-opacity="1" fill-rule="nonzero"/></g></g></g></g></g></g><g clip-path="url(#53c9b8404a)"><g clip-path="url(#3e829f2b32)"><path stroke-linecap="butt" transform="matrix(0.951247, 0, 0, 0.951247, 97.688985, 427.41137)" fill="none" stroke-linejoin="miter" d="M 29.782545 -0.00127571 L 103.54266 -0.00127571 C 119.993112 -0.00127571 133.326766 13.336485 133.326766 29.78283 L 133.326766 103.542945 C 133.326766 119.993397 119.993112 133.327051 103.54266 133.327051 L 29.782545 133.327051 C 13.3362 133.327051 -0.00156088 119.993397 -0.00156088 103.542945 L -0.00156088 29.78283 C -0.00156088 13.336485 13.3362 -0.00127571 29.782545 -0.00127571 Z M 29.782545 -0.00127571 " stroke="#000000" stroke-width="4.730634" stroke-opacity="1" stroke-miterlimit="4"/></g></g><g transform="matrix(1, 0, 0, 1, 765, 50)"><g clip-path="url(#ee6d43ff46)"><g fill="#000000" fill-opacity="1"><g transform="translate(0.0641073, 301.245891)"><g><path d="M 245.015625 0 L 245.015625 -219.46875 L 30.0625 -219.46875 L 30.0625 -263.0625 L 503.5625 -263.0625 L 503.5625 -219.46875 L 288.609375 -219.46875 L 288.609375 0 Z M 245.015625 0 "/></g></g></g></g></g><g transform="matrix(1, 0, 0, 1, 68, 50)"><g clip-path="url(#0c88340796)"><g fill="#000000" fill-opacity="1"><g transform="translate(0.720565, 301.245891)"><g><path d="M 30.0625 0 L 30.0625 -263.0625 L 396.84375 -263.0625 C 411.625 -263.0625 424.773438 -259.738281 436.296875 -253.09375 C 447.828125 -246.457031 456.910156 -237.375 463.546875 -225.84375 C 470.179688 -214.320312 473.5 -201.171875 473.5 -186.390625 C 473.5 -163.847656 466.234375 -145.5625 451.703125 -131.53125 C 466.234375 -117.5 473.5 -99.207031 473.5 -76.65625 C 473.5 -61.875 470.179688 -48.722656 463.546875 -37.203125 C 456.910156 -25.679688 447.828125 -16.597656 436.296875 -9.953125 C 424.773438 -3.316406 411.625 0 396.84375 0 Z M 73.65625 -43.59375 L 396.84375 -43.59375 C 406.363281 -43.59375 414.253906 -46.785156 420.515625 -53.171875 C 426.773438 -59.566406 429.90625 -67.394531 429.90625 -76.65625 C 429.90625 -86.175781 426.773438 -94.066406 420.515625 -100.328125 C 414.253906 -106.597656 406.363281 -109.734375 396.84375 -109.734375 L 73.65625 -109.734375 Z M 73.65625 -153.328125 L 396.84375 -153.328125 C 406.363281 -153.328125 414.253906 -156.519531 420.515625 -162.90625 C 426.773438 -169.289062 429.90625 -177.117188 429.90625 -186.390625 C 429.90625 -195.910156 426.773438 -203.800781 420.515625 -210.0625 C 414.253906 -216.332031 406.363281 -219.46875 396.84375 -219.46875 L 73.65625 -219.46875 Z M 73.65625 -153.328125 "/></g></g></g></g></g><g transform="matrix(1, 0, 0, 1, 121, 345)"><g clip-path="url(#37ac72ee3d)"><g fill="#7ed957" fill-opacity="1"><g transform="translate(1.045105, 62.8368)"><g><path d="M 5.265625 -41.796875 L 18.265625 -41.796875 C 24.191406 -41.796875 28.492188 -40.953125 31.171875 -39.265625 C 33.847656 -37.578125 35.1875 -34.894531 35.1875 -31.21875 C 35.1875 -28.71875 34.597656 -26.664062 33.421875 -25.0625 C 32.253906 -23.46875 30.703125 -22.507812 28.765625 -22.1875 L 28.765625 -21.890625 C 31.410156 -21.304688 33.316406 -20.203125 34.484375 -18.578125 C 35.660156 -16.960938 36.25 -14.8125 36.25 -12.125 C 36.25 -8.3125 34.867188 -5.335938 32.109375 -3.203125 C 29.359375 -1.066406 25.617188 0 20.890625 0 L 5.265625 0 Z M 14.125 -25.25 L 19.265625 -25.25 C 21.671875 -25.25 23.410156 -25.617188 24.484375 -26.359375 C 25.554688 -27.097656 26.09375 -28.328125 26.09375 -30.046875 C 26.09375 -31.648438 25.503906 -32.796875 24.328125 -33.484375 C 23.160156 -34.179688 21.3125 -34.53125 18.78125 -34.53125 L 14.125 -34.53125 Z M 14.125 -18.203125 L 14.125 -7.3125 L 19.890625 -7.3125 C 22.335938 -7.3125 24.140625 -7.78125 25.296875 -8.71875 C 26.460938 -9.65625 27.046875 -11.082031 27.046875 -13 C 27.046875 -16.46875 24.566406 -18.203125 19.609375 -18.203125 Z M 14.125 -18.203125 "/></g></g></g><g fill="#7ed957" fill-opacity="1"><g transform="translate(77.02505, 62.8368)"><g><path d="M 39.28125 -41.796875 L 39.28125 -14.75 C 39.28125 -11.664062 38.585938 -8.957031 37.203125 -6.625 C 35.828125 -4.300781 33.832031 -2.519531 31.21875 -1.28125 C 28.601562 -0.0390625 25.515625 0.578125 21.953125 0.578125 C 16.578125 0.578125 12.398438 -0.796875 9.421875 -3.546875 C 6.453125 -6.304688 4.96875 -10.078125 4.96875 -14.859375 L 4.96875 -41.796875 L 13.8125 -41.796875 L 13.8125 -16.203125 C 13.8125 -12.984375 14.457031 -10.617188 15.75 -9.109375 C 17.050781 -7.609375 19.195312 -6.859375 22.1875 -6.859375 C 25.082031 -6.859375 27.179688 -7.613281 28.484375 -9.125 C 29.796875 -10.644531 30.453125 -13.023438 30.453125 -16.265625 L 30.453125 -41.796875 Z M 39.28125 -41.796875 "/></g></g></g><g fill="#7ed957" fill-opacity="1"><g transform="translate(157.921364, 62.8368)"><g><path d="M 5.265625 0 L 5.265625 -41.796875 L 14.125 -41.796875 L 14.125 0 Z M 5.265625 0 "/></g></g></g><g fill="#7ed957" fill-opacity="1"><g transform="translate(213.949994, 62.8368)"><g><path d="M 5.265625 0 L 5.265625 -41.796875 L 14.125 -41.796875 L 14.125 -7.3125 L 31.078125 -7.3125 L 31.078125 0 Z M 5.265625 0 "/></g></g></g><g fill="#7ed957" fill-opacity="1"><g transform="translate(283.670148, 62.8368)"><g><path d="M 39.9375 -21.296875 C 39.9375 -14.421875 37.976562 -9.148438 34.0625 -5.484375 C 30.144531 -1.828125 24.488281 0 17.09375 0 L 5.265625 0 L 5.265625 -41.796875 L 18.375 -41.796875 C 25.195312 -41.796875 30.492188 -39.992188 34.265625 -36.390625 C 38.046875 -32.785156 39.9375 -27.753906 39.9375 -21.296875 Z M 30.734375 -21.0625 C 30.734375 -30.039062 26.769531 -34.53125 18.84375 -34.53125 L 14.125 -34.53125 L 14.125 -7.3125 L 17.921875 -7.3125 C 26.460938 -7.3125 30.734375 -11.894531 30.734375 -21.0625 Z M 30.734375 -21.0625 "/></g></g></g><g fill="#7ed957" fill-opacity="1"><g transform="translate(363.6518, 62.8368)"><g/></g></g><g fill="#7ed957" fill-opacity="1"><g transform="translate(415.507221, 62.8368)"><g><path d="M 18.265625 -24.578125 L 26.984375 -41.796875 L 36.53125 -41.796875 L 22.671875 -16.265625 L 22.671875 0 L 13.859375 0 L 13.859375 -15.984375 L 0 -41.796875 L 9.609375 -41.796875 Z M 18.265625 -24.578125 "/></g></g></g><g fill="#7ed957" fill-opacity="1"><g transform="translate(488.685957, 62.8368)"><g><path d="M 43.203125 -20.953125 C 43.203125 -14.035156 41.484375 -8.71875 38.046875 -5 C 34.617188 -1.28125 29.703125 0.578125 23.296875 0.578125 C 16.890625 0.578125 11.972656 -1.28125 8.546875 -5 C 5.117188 -8.71875 3.40625 -14.054688 3.40625 -21.015625 C 3.40625 -27.972656 5.125 -33.285156 8.5625 -36.953125 C 12 -40.617188 16.929688 -42.453125 23.359375 -42.453125 C 29.773438 -42.453125 34.6875 -40.601562 38.09375 -36.90625 C 41.5 -33.207031 43.203125 -27.890625 43.203125 -20.953125 Z M 12.6875 -20.953125 C 12.6875 -16.285156 13.570312 -12.769531 15.34375 -10.40625 C 17.125 -8.039062 19.773438 -6.859375 23.296875 -6.859375 C 30.367188 -6.859375 33.90625 -11.554688 33.90625 -20.953125 C 33.90625 -30.367188 30.390625 -35.078125 23.359375 -35.078125 C 19.828125 -35.078125 17.164062 -33.890625 15.375 -31.515625 C 13.582031 -29.140625 12.6875 -25.617188 12.6875 -20.953125 Z M 12.6875 -20.953125 "/></g></g></g><g fill="#7ed957" fill-opacity="1"><g transform="translate(571.926143, 62.8368)"><g><path d="M 39.28125 -41.796875 L 39.28125 -14.75 C 39.28125 -11.664062 38.585938 -8.957031 37.203125 -6.625 C 35.828125 -4.300781 33.832031 -2.519531 31.21875 -1.28125 C 28.601562 -0.0390625 25.515625 0.578125 21.953125 0.578125 C 16.578125 0.578125 12.398438 -0.796875 9.421875 -3.546875 C 6.453125 -6.304688 4.96875 -10.078125 4.96875 -14.859375 L 4.96875 -41.796875 L 13.8125 -41.796875 L 13.8125 -16.203125 C 13.8125 -12.984375 14.457031 -10.617188 15.75 -9.109375 C 17.050781 -7.609375 19.195312 -6.859375 22.1875 -6.859375 C 25.082031 -6.859375 27.179688 -7.613281 28.484375 -9.125 C 29.796875 -10.644531 30.453125 -13.023438 30.453125 -16.265625 L 30.453125 -41.796875 Z M 39.28125 -41.796875 "/></g></g></g><g fill="#7ed957" fill-opacity="1"><g transform="translate(652.822447, 62.8368)"><g><path d="M 14.125 -23.234375 L 16.984375 -23.234375 C 19.785156 -23.234375 21.851562 -23.703125 23.1875 -24.640625 C 24.519531 -25.578125 25.1875 -27.046875 25.1875 -29.046875 C 25.1875 -31.023438 24.503906 -32.429688 23.140625 -33.265625 C 21.773438 -34.109375 19.664062 -34.53125 16.8125 -34.53125 L 14.125 -34.53125 Z M 14.125 -16.03125 L 14.125 0 L 5.265625 0 L 5.265625 -41.796875 L 17.4375 -41.796875 C 23.113281 -41.796875 27.316406 -40.757812 30.046875 -38.6875 C 32.773438 -36.625 34.140625 -33.488281 34.140625 -29.28125 C 34.140625 -26.8125 33.460938 -24.617188 32.109375 -22.703125 C 30.753906 -20.796875 28.835938 -19.296875 26.359375 -18.203125 C 32.648438 -8.804688 36.75 -2.738281 38.65625 0 L 28.8125 0 L 18.84375 -16.03125 Z M 14.125 -16.03125 "/></g></g></g><g fill="#7ed957" fill-opacity="1"><g transform="translate(728.116397, 62.8368)"><g/></g></g><g fill="#7ed957" fill-opacity="1"><g transform="translate(779.971862, 62.8368)"><g><path d="M 21.390625 0 L 12.515625 0 L 12.515625 -34.421875 L 1.171875 -34.421875 L 1.171875 -41.796875 L 32.734375 -41.796875 L 32.734375 -34.421875 L 21.390625 -34.421875 Z M 21.390625 0 "/></g></g></g><g fill="#7ed957" fill-opacity="1"><g transform="translate(850.520933, 62.8368)"><g><path d="M 43.203125 -20.953125 C 43.203125 -14.035156 41.484375 -8.71875 38.046875 -5 C 34.617188 -1.28125 29.703125 0.578125 23.296875 0.578125 C 16.890625 0.578125 11.972656 -1.28125 8.546875 -5 C 5.117188 -8.71875 3.40625 -14.054688 3.40625 -21.015625 C 3.40625 -27.972656 5.125 -33.285156 8.5625 -36.953125 C 12 -40.617188 16.929688 -42.453125 23.359375 -42.453125 C 29.773438 -42.453125 34.6875 -40.601562 38.09375 -36.90625 C 41.5 -33.207031 43.203125 -27.890625 43.203125 -20.953125 Z M 12.6875 -20.953125 C 12.6875 -16.285156 13.570312 -12.769531 15.34375 -10.40625 C 17.125 -8.039062 19.773438 -6.859375 23.296875 -6.859375 C 30.367188 -6.859375 33.90625 -11.554688 33.90625 -20.953125 C 33.90625 -30.367188 30.390625 -35.078125 23.359375 -35.078125 C 19.828125 -35.078125 17.164062 -33.890625 15.375 -31.515625 C 13.582031 -29.140625 12.6875 -25.617188 12.6875 -20.953125 Z M 12.6875 -20.953125 "/></g></g></g><g fill="#7ed957" fill-opacity="1"><g transform="translate(933.761034, 62.8368)"><g><path d="M 43.203125 -20.953125 C 43.203125 -14.035156 41.484375 -8.71875 38.046875 -5 C 34.617188 -1.28125 29.703125 0.578125 23.296875 0.578125 C 16.890625 0.578125 11.972656 -1.28125 8.546875 -5 C 5.117188 -8.71875 3.40625 -14.054688 3.40625 -21.015625 C 3.40625 -27.972656 5.125 -33.285156 8.5625 -36.953125 C 12 -40.617188 16.929688 -42.453125 23.359375 -42.453125 C 29.773438 -42.453125 34.6875 -40.601562 38.09375 -36.90625 C 41.5 -33.207031 43.203125 -27.890625 43.203125 -20.953125 Z M 12.6875 -20.953125 C 12.6875 -16.285156 13.570312 -12.769531 15.34375 -10.40625 C 17.125 -8.039062 19.773438 -6.859375 23.296875 -6.859375 C 30.367188 -6.859375 33.90625 -11.554688 33.90625 -20.953125 C 33.90625 -30.367188 30.390625 -35.078125 23.359375 -35.078125 C 19.828125 -35.078125 17.164062 -33.890625 15.375 -31.515625 C 13.582031 -29.140625 12.6875 -25.617188 12.6875 -20.953125 Z M 12.6875 -20.953125 "/></g></g></g><g fill="#7ed957" fill-opacity="1"><g transform="translate(1017.001221, 62.8368)"><g><path d="M 5.265625 0 L 5.265625 -41.796875 L 14.125 -41.796875 L 14.125 -7.3125 L 31.078125 -7.3125 L 31.078125 0 Z M 5.265625 0 "/></g></g></g><g fill="#7ed957" fill-opacity="1"><g transform="translate(1086.721374, 62.8368)"><g><path d="M 29.9375 -11.609375 C 29.9375 -7.835938 28.578125 -4.863281 25.859375 -2.6875 C 23.140625 -0.507812 19.359375 0.578125 14.515625 0.578125 C 10.054688 0.578125 6.113281 -0.257812 2.6875 -1.9375 L 2.6875 -10.171875 C 5.507812 -8.921875 7.894531 -8.035156 9.84375 -7.515625 C 11.800781 -7.003906 13.585938 -6.75 15.203125 -6.75 C 17.148438 -6.75 18.640625 -7.117188 19.671875 -7.859375 C 20.710938 -8.597656 21.234375 -9.703125 21.234375 -11.171875 C 21.234375 -11.992188 21.003906 -12.722656 20.546875 -13.359375 C 20.097656 -14.003906 19.425781 -14.617188 18.53125 -15.203125 C 17.644531 -15.796875 15.84375 -16.738281 13.125 -18.03125 C 10.570312 -19.238281 8.65625 -20.394531 7.375 -21.5 C 6.09375 -22.601562 5.070312 -23.890625 4.3125 -25.359375 C 3.550781 -26.828125 3.171875 -28.539062 3.171875 -30.5 C 3.171875 -34.195312 4.421875 -37.101562 6.921875 -39.21875 C 9.429688 -41.332031 12.898438 -42.390625 17.328125 -42.390625 C 19.492188 -42.390625 21.5625 -42.128906 23.53125 -41.609375 C 25.507812 -41.097656 27.578125 -40.378906 29.734375 -39.453125 L 26.875 -32.5625 C 24.644531 -33.476562 22.800781 -34.113281 21.34375 -34.46875 C 19.882812 -34.832031 18.445312 -35.015625 17.03125 -35.015625 C 15.351562 -35.015625 14.066406 -34.625 13.171875 -33.84375 C 12.273438 -33.0625 11.828125 -32.039062 11.828125 -30.78125 C 11.828125 -30 12.007812 -29.316406 12.375 -28.734375 C 12.738281 -28.160156 13.316406 -27.601562 14.109375 -27.0625 C 14.898438 -26.519531 16.769531 -25.539062 19.71875 -24.125 C 23.625 -22.257812 26.300781 -20.382812 27.75 -18.5 C 29.207031 -16.625 29.9375 -14.328125 29.9375 -11.609375 Z M 29.9375 -11.609375 "/></g></g></g></g></g><g transform="matrix(1, 0, 0, 1, 87, 407)"><g clip-path="url(#369718f422)"><g fill="#ffffff" fill-opacity="1"><g transform="translate(0.864695, 162.018031)"><g><path d="M 112.46875 -25.046875 L 10.796875 -69.734375 L 10.796875 -80.515625 L 112.46875 -131.25 L 112.46875 -114.40625 L 31.09375 -75.984375 L 112.46875 -41.875 Z M 112.46875 -25.046875 "/></g></g></g></g></g><g clip-path="url(#f4b74c086a)"><g clip-path="url(#7cbdfa8921)"><g transform="matrix(1, 0, 0, 1, 244, 427)"><g clip-path="url(#3fd1e8fe87)"><g clip-path="url(#0bc0ad3b5e)"><g clip-path="url(#77f8f061e6)"><path fill="#ff0000" d="M 0.957031 0.410156 L 127.789062 0.410156 L 127.789062 127.246094 L 0.957031 127.246094 Z M 0.957031 0.410156 " fill-opacity="1" fill-rule="nonzero"/></g></g></g></g></g></g><g clip-path="url(#66723be4dd)"><g clip-path="url(#adc912d65a)"><path stroke-linecap="butt" transform="matrix(0.951247, 0, 0, 0.951247, 244.956123, 427.41137)" fill="none" stroke-linejoin="miter" d="M 29.785061 -0.00127571 L 103.545176 -0.00127571 C 119.991522 -0.00127571 133.329282 13.336485 133.329282 29.78283 L 133.329282 103.542945 C 133.329282 119.993397 119.991522 133.327051 103.545176 133.327051 L 29.785061 133.327051 C 13.334609 133.327051 0.000955322 119.993397 0.000955322 103.542945 L 0.000955322 29.78283 C 0.000955322 13.336485 13.334609 -0.00127571 29.785061 -0.00127571 Z M 29.785061 -0.00127571 " stroke="#000000" stroke-width="4.730634" stroke-opacity="1" stroke-miterlimit="4"/></g></g><g clip-path="url(#6fd723ebed)"><g clip-path="url(#25b1e32216)"><g transform="matrix(1, 0, 0, 1, 392, 427)"><g clip-path="url(#b9ac435d11)"><g clip-path="url(#fe644289a5)"><g clip-path="url(#d39dc4d8aa)"><path fill="#ff751f" d="M 0.222656 0.410156 L 127.054688 0.410156 L 127.054688 127.246094 L 0.222656 127.246094 Z M 0.222656 0.410156 " fill-opacity="1" fill-rule="nonzero"/></g></g></g></g></g></g><g clip-path="url(#ac77a09500)"><g clip-path="url(#e4599eb4fb)"><path stroke-linecap="butt" transform="matrix(0.951247, 0, 0, 0.951247, 392.223157, 427.41137)" fill="none" stroke-linejoin="miter" d="M 29.78358 -0.00127571 L 103.543694 -0.00127571 C 119.994146 -0.00127571 133.3278 13.336485 133.3278 29.78283 L 133.3278 103.542945 C 133.3278 119.993397 119.994146 133.327051 103.543694 133.327051 L 29.78358 133.327051 C 13.333128 133.327051 -0.000526435 119.993397 -0.000526435 103.542945 L -0.000526435 29.78283 C -0.000526435 13.336485 13.333128 -0.00127571 29.78358 -0.00127571 Z M 29.78358 -0.00127571 " stroke="#000000" stroke-width="4.730634" stroke-opacity="1" stroke-miterlimit="4"/></g></g><g clip-path="url(#d6178ec14e)"><g clip-path="url(#c3054c2266)"><g transform="matrix(1, 0, 0, 1, 540, 427)"><g clip-path="url(#36b4d41ea8)"><g clip-path="url(#2df00dd1a3)"><g clip-path="url(#202b3d2544)"><path fill="#ffffff" d="M 0.109375 0.410156 L 126.941406 0.410156 L 126.941406 127.246094 L 0.109375 127.246094 Z M 0.109375 0.410156 " fill-opacity="1" fill-rule="nonzero"/></g></g></g></g></g></g><g clip-path="url(#91702263cf)"><g clip-path="url(#a98acd37fc)"><path stroke-linecap="butt" transform="matrix(0.951247, 0, 0, 0.951247, 540.10912, 427.41137)" fill="none" stroke-linejoin="miter" d="M 29.784374 -0.00127571 L 103.544489 -0.00127571 C 119.994941 -0.00127571 133.328595 13.336485 133.328595 29.78283 L 133.328595 103.542945 C 133.328595 119.993397 119.994941 133.327051 103.544489 133.327051 L 29.784374 133.327051 C 13.333922 133.327051 0.000267743 119.993397 0.000267743 103.542945 L 0.000267743 29.78283 C 0.000267743 13.336485 13.333922 -0.00127571 29.784374 -0.00127571 Z M 29.784374 -0.00127571 " stroke="#000000" stroke-width="4.730634" stroke-opacity="1" stroke-miterlimit="4"/></g></g><g clip-path="url(#ff131955c1)"><g clip-path="url(#7812e4c155)"><g transform="matrix(1, 0, 0, 1, 687, 427)"><g clip-path="url(#6cfef75e1f)"><g clip-path="url(#58278c5edb)"><g clip-path="url(#6d1442f5b1)"><path fill="#c1ff72" d="M 0.6875 0.410156 L 127.519531 0.410156 L 127.519531 127.246094 L 0.6875 127.246094 Z M 0.6875 0.410156 " fill-opacity="1" fill-rule="nonzero"/></g></g></g></g></g></g><g clip-path="url(#50606a8bbd)"><g clip-path="url(#8b19e5afc1)"><path stroke-linecap="butt" transform="matrix(0.951247, 0, 0, 0.951247, 687.685666, 427.41137)" fill="none" stroke-linejoin="miter" d="M 29.786034 -0.00127571 L 103.542042 -0.00127571 C 119.992494 -0.00127571 133.326148 13.336485 133.326148 29.78283 L 133.326148 103.542945 C 133.326148 119.993397 119.992494 133.327051 103.542042 133.327051 L 29.786034 133.327051 C 13.335582 133.327051 0.00192798 119.993397 0.00192798 103.542945 L 0.00192798 29.78283 C 0.00192798 13.336485 13.335582 -0.00127571 29.786034 -0.00127571 Z M 29.786034 -0.00127571 " stroke="#000000" stroke-width="4.730634" stroke-opacity="1" stroke-miterlimit="4"/></g></g><g clip-path="url(#cd0ee5968b)"><g clip-path="url(#1be42e4271)"><g transform="matrix(1, 0, 0, 1, 835, 427)"><g clip-path="url(#1085fac767)"><g clip-path="url(#9b17ea8771)"><g clip-path="url(#be90902b81)"><path fill="#7ed957" d="M 0.261719 0.410156 L 127.09375 0.410156 L 127.09375 127.246094 L 0.261719 127.246094 Z M 0.261719 0.410156 " fill-opacity="1" fill-rule="nonzero"/></g></g></g></g></g></g><g clip-path="url(#5066a1f6af)"><g clip-path="url(#ca83bee212)"><path stroke-linecap="butt" transform="matrix(0.951247, 0, 0, 0.951247, 835.262116, 427.41137)" fill="none" stroke-linejoin="miter" d="M 29.783689 -0.00127571 L 103.543804 -0.00127571 C 119.994256 -0.00127571 133.32791 13.336485 133.32791 29.78283 L 133.32791 103.542945 C 133.32791 119.993397 119.994256 133.327051 103.543804 133.327051 L 29.783689 133.327051 C 13.333237 133.327051 -0.000417312 119.993397 -0.000417312 103.542945 L -0.000417312 29.78283 C -0.000417312 13.336485 13.333237 -0.00127571 29.783689 -0.00127571 Z M 29.783689 -0.00127571 " stroke="#000000" stroke-width="4.730634" stroke-opacity="1" stroke-miterlimit="4"/></g></g><g clip-path="url(#b97ed73cfe)"><g clip-path="url(#f73327043f)"><g transform="matrix(1, 0, 0, 1, 982, 427)"><g clip-path="url(#43174577be)"><g clip-path="url(#d1314d9607)"><g clip-path="url(#e34dc56933)"><path fill="#00bf63" d="M 0.839844 0.410156 L 127.671875 0.410156 L 127.671875 127.246094 L 0.839844 127.246094 Z M 0.839844 0.410156 " fill-opacity="1" fill-rule="nonzero"/></g></g></g></g></g></g><g clip-path="url(#0200267b17)"><g clip-path="url(#8f8e52a885)"><path stroke-linecap="butt" transform="matrix(0.951247, 0, 0, 0.951247, 982.838661, 427.41137)" fill="none" stroke-linejoin="miter" d="M 29.785349 -0.00127571 L 103.545464 -0.00127571 C 119.991809 -0.00127571 133.32957 13.336485 133.32957 29.78283 L 133.32957 103.542945 C 133.32957 119.993397 119.991809 133.327051 103.545464 133.327051 L 29.785349 133.327051 C 13.334897 133.327051 0.00124293 119.993397 0.00124293 103.542945 L 0.00124293 29.78283 C 0.00124293 13.336485 13.334897 -0.00127571 29.785349 -0.00127571 Z M 29.785349 -0.00127571 " stroke="#000000" stroke-width="4.730634" stroke-opacity="1" stroke-miterlimit="4"/></g></g><g clip-path="url(#61c0e9cf33)"><g clip-path="url(#fc759c912a)"><g transform="matrix(1, 0, 0, 1, 1130, 427)"><g clip-path="url(#da3adde5b5)"><g clip-path="url(#97147decd0)"><g clip-path="url(#6a13e26431)"><path fill="#077d44" d="M 0.414062 0.410156 L 127.25 0.410156 L 127.25 127.246094 L 0.414062 127.246094 Z M 0.414062 0.410156 " fill-opacity="1" fill-rule="nonzero"/></g></g></g></g></g></g><g clip-path="url(#b2a8c054f8)"><g clip-path="url(#7314524126)"><path stroke-linecap="butt" transform="matrix(0.951247, 0, 0, 0.951247, 1130.415111, 427.41137)" fill="none" stroke-linejoin="miter" d="M 29.783004 -0.00127571 L 103.543118 -0.00127571 C 119.993571 -0.00127571 133.327224 13.336485 133.327224 29.78283 L 133.327224 103.542945 C 133.327224 119.993397 119.993571 133.327051 103.543118 133.327051 L 29.783004 133.327051 C 13.336658 133.327051 -0.00110237 119.993397 -0.00110237 103.542945 L -0.00110237 29.78283 C -0.00110237 13.336485 13.336658 -0.00127571 29.783004 -0.00127571 Z M 29.783004 -0.00127571 " stroke="#000000" stroke-width="4.730634" stroke-opacity="1" stroke-miterlimit="4"/></g></g><g transform="matrix(1, 0, 0, 1, 1132, 407)"><g clip-path="url(#945f614f48)"><g fill="#ffffff" fill-opacity="1"><g transform="translate(0.0874901, 162.018031)"><g><path d="M 10.796875 -41.875 L 92.171875 -75.765625 L 10.796875 -114.40625 L 10.796875 -131.25 L 112.46875 -80.515625 L 112.46875 -69.734375 L 10.796875 -25.046875 Z M 10.796875 -41.875 "/></g></g></g></g></g></g></g></svg>